<?xml version="1.0" standalone="no"?>
<!DOCTYPE svg PUBLIC "-//W3C//DTD SVG 20010904//EN"
 "http://www.w3.org/TR/2001/REC-SVG-20010904/DTD/svg10.dtd">
<svg version="1.0" xmlns="http://www.w3.org/2000/svg"
 width="438.000000pt" height="438.000000pt" viewBox="0 0 438.000000 438.000000"
 preserveAspectRatio="xMidYMid meet">

<g transform="translate(0.000000,438.000000) scale(0.100000,-0.100000)"
fill="#999999" stroke="none">
<path d="M1071 3808 c-210 -30 -382 -180 -457 -398 -18 -53 -19 -104 -19
-1215 l0 -1160 28 -68 c51 -126 130 -222 237 -289 64 -40 92 -51 176 -73 54
-13 205 -15 1163 -15 981 0 1110 2 1174 16 130 30 245 103 323 207 55 73 64
91 95 182 l24 70 0 1140 c0 1275 6 1166 -72 1316 -76 147 -248 267 -416 289
-99 13 -2165 11 -2256 -2z m2272 -133 c86 -22 151 -59 212 -120 65 -65 101
-133 121 -224 21 -100 20 -2154 -1 -2255 -21 -98 -50 -152 -119 -222 -70 -69
-146 -110 -232 -124 -85 -14 -2172 -13 -2250 1 -165 30 -308 173 -344 342 -7
36 -10 392 -8 1162 l3 1110 29 69 c36 84 138 195 208 226 114 50 78 49 1238
49 932 1 1094 -1 1143 -14z"/>
<path d="M1636 3411 c-3 -5 -6 -248 -6 -542 l-1 -533 -75 -73 c-55 -53 -84
-91 -107 -140 l-32 -68 0 -225 c0 -194 2 -230 18 -264 27 -62 82 -127 142
-171 l55 -39 0 -133 0 -132 31 -36 c50 -57 80 -68 187 -67 83 1 98 4 132 26
47 31 80 96 80 159 l0 47 135 0 c74 0 138 1 143 3 4 1 8 -16 10 -38 4 -75 13
-104 39 -135 44 -52 77 -64 181 -62 109 3 139 15 182 74 30 40 30 43 30 168
l0 127 40 28 c60 42 119 110 148 173 27 56 27 60 27 277 0 218 0 220 -27 278
-33 71 -82 131 -142 176 l-46 35 0 536 c0 564 0 560 -45 560 -11 0 -103 -50
-205 -110 l-184 -110 -143 0 -142 0 -185 110 c-170 102 -225 125 -240 101z
m254 -220 l135 -81 179 0 179 0 96 58 c138 84 188 112 200 112 16 0 15 -1015
-1 -1078 -27 -111 -107 -176 -213 -175 -120 1 -205 74 -205 175 0 40 5 49 55
98 54 53 65 79 45 110 -12 19 -266 28 -299 10 -38 -20 -27 -60 34 -120 48 -48
55 -59 55 -94 0 -50 -39 -117 -83 -145 -124 -76 -277 -27 -326 105 -20 53 -21
74 -21 590 0 506 1 534 18 525 9 -5 78 -46 152 -90z m-260 -1012 c0 -33 60
-137 99 -171 19 -17 59 -42 89 -56 106 -48 260 -16 344 72 l32 34 49 -43 c86
-78 213 -106 320 -69 85 29 165 117 201 222 l12 34 38 -39 c80 -80 101 -188
58 -287 -30 -68 -135 -167 -222 -211 -142 -71 -286 -105 -449 -105 -386 0
-702 187 -701 414 0 60 26 122 76 183 39 48 54 54 54 22z m1256 -565 c-21 -64
-60 -108 -135 -157 -115 -76 -243 -117 -427 -138 -328 -37 -701 86 -788 260
-22 43 -42 141 -30 141 3 0 31 -23 62 -50 114 -102 317 -178 535 -200 280 -28
620 76 767 235 l25 27 3 -37 c2 -20 -3 -56 -12 -81z m-1076 -336 c30 -11 75
-23 100 -26 l45 -7 3 -62 c3 -56 1 -63 -24 -82 -21 -17 -41 -21 -96 -21 -60 0
-72 3 -93 25 -23 22 -25 32 -25 116 0 83 2 90 18 84 9 -4 42 -16 72 -27z m869
-151 c-7 -16 -23 -33 -36 -38 -27 -10 -116 -12 -151 -3 -30 9 -52 53 -52 107
0 47 9 57 53 57 12 1 60 13 107 29 l85 28 3 -75 c2 -43 -2 -88 -9 -105z"/>
<path d="M1903 2858 c-46 -22 -53 -91 -14 -139 28 -35 95 -33 127 4 66 77 -20
180 -113 135z"/>
<path d="M2395 2846 c-35 -36 -42 -72 -18 -104 48 -65 131 -63 159 4 37 89
-74 167 -141 100z"/>
</g>
</svg>
